<mxfile host="app.diagrams.net" agent="Mozilla/5.0 (Windows NT 10.0; Win64; x64) AppleWebKit/537.36 (KHTML, like Gecko) Chrome/140.0.0.0 Safari/537.36 Edg/140.0.0.0" version="28.2.3">
  <diagram name="Page-1" id="xYqxnNdJCj7zSOpgXuwz">
    <mxGraphModel dx="1244" dy="1814" grid="1" gridSize="10" guides="1" tooltips="1" connect="1" arrows="1" fold="1" page="1" pageScale="1" pageWidth="850" pageHeight="1100" math="0" shadow="0">
      <root>
        <mxCell id="0" />
        <mxCell id="1" parent="0" />
        <mxCell id="C2yTfaaZEqmCllLoVJ0j-1" value="" style="ellipse;html=1;shape=startState;fillColor=#000000;strokeColor=#ff0000;" parent="1" vertex="1">
          <mxGeometry x="667.5" y="-160" width="30" height="30" as="geometry" />
        </mxCell>
        <mxCell id="C2yTfaaZEqmCllLoVJ0j-2" value="" style="edgeStyle=orthogonalEdgeStyle;html=1;verticalAlign=bottom;endArrow=openThin;endSize=8;strokeColor=#ff0000;rounded=0;endFill=0;" parent="1" source="C2yTfaaZEqmCllLoVJ0j-1" edge="1">
          <mxGeometry relative="1" as="geometry">
            <mxPoint x="682.5" y="-70" as="targetPoint" />
          </mxGeometry>
        </mxCell>
        <mxCell id="C2yTfaaZEqmCllLoVJ0j-5" value="" style="edgeStyle=orthogonalEdgeStyle;rounded=0;orthogonalLoop=1;jettySize=auto;html=1;" parent="1" source="C2yTfaaZEqmCllLoVJ0j-3" target="C2yTfaaZEqmCllLoVJ0j-4" edge="1">
          <mxGeometry relative="1" as="geometry" />
        </mxCell>
        <mxCell id="C2yTfaaZEqmCllLoVJ0j-3" value="Actor chọn vào sản phẩm muốn xem chi tiết" style="rounded=1;whiteSpace=wrap;html=1;" parent="1" vertex="1">
          <mxGeometry x="890" width="145" height="40" as="geometry" />
        </mxCell>
        <mxCell id="C2yTfaaZEqmCllLoVJ0j-7" style="edgeStyle=orthogonalEdgeStyle;rounded=0;orthogonalLoop=1;jettySize=auto;html=1;entryX=0.5;entryY=0;entryDx=0;entryDy=0;" parent="1" source="C2yTfaaZEqmCllLoVJ0j-4" edge="1">
          <mxGeometry relative="1" as="geometry">
            <mxPoint x="962.5" y="170" as="targetPoint" />
          </mxGeometry>
        </mxCell>
        <mxCell id="C2yTfaaZEqmCllLoVJ0j-4" value="Hệ thống hiển thị chi tiết sản phẩm&amp;nbsp;" style="whiteSpace=wrap;html=1;rounded=1;" parent="1" vertex="1">
          <mxGeometry x="890.5" y="80" width="144.5" height="50" as="geometry" />
        </mxCell>
        <mxCell id="C2yTfaaZEqmCllLoVJ0j-9" style="edgeStyle=orthogonalEdgeStyle;rounded=0;orthogonalLoop=1;jettySize=auto;html=1;entryX=0.5;entryY=0;entryDx=0;entryDy=0;" parent="1" source="C2yTfaaZEqmCllLoVJ0j-6" target="C2yTfaaZEqmCllLoVJ0j-8" edge="1">
          <mxGeometry relative="1" as="geometry" />
        </mxCell>
        <mxCell id="C2yTfaaZEqmCllLoVJ0j-6" value="Actor chọn sản phẩm và bấm mua hàng" style="rounded=1;whiteSpace=wrap;html=1;" parent="1" vertex="1">
          <mxGeometry x="606.5" y="150" width="147" height="50" as="geometry" />
        </mxCell>
        <mxCell id="C2yTfaaZEqmCllLoVJ0j-10" style="edgeStyle=orthogonalEdgeStyle;rounded=0;orthogonalLoop=1;jettySize=auto;html=1;" parent="1" source="C2yTfaaZEqmCllLoVJ0j-8" edge="1">
          <mxGeometry relative="1" as="geometry">
            <mxPoint x="681.25" y="330" as="targetPoint" />
          </mxGeometry>
        </mxCell>
        <mxCell id="C2yTfaaZEqmCllLoVJ0j-8" value="Hệ thống cập nhật giỏ hàng và các thông tin thanh toán" style="rounded=1;whiteSpace=wrap;html=1;" parent="1" vertex="1">
          <mxGeometry x="608" y="230" width="146.5" height="60" as="geometry" />
        </mxCell>
        <mxCell id="C2yTfaaZEqmCllLoVJ0j-12" style="edgeStyle=orthogonalEdgeStyle;rounded=0;orthogonalLoop=1;jettySize=auto;html=1;" parent="1" source="C2yTfaaZEqmCllLoVJ0j-11" edge="1">
          <mxGeometry relative="1" as="geometry">
            <mxPoint x="574" y="595" as="targetPoint" />
          </mxGeometry>
        </mxCell>
        <mxCell id="C2yTfaaZEqmCllLoVJ0j-20" style="edgeStyle=orthogonalEdgeStyle;rounded=0;orthogonalLoop=1;jettySize=auto;html=1;" parent="1" source="C2yTfaaZEqmCllLoVJ0j-11" edge="1">
          <mxGeometry relative="1" as="geometry">
            <mxPoint x="680.75" y="670" as="targetPoint" />
          </mxGeometry>
        </mxCell>
        <mxCell id="C2yTfaaZEqmCllLoVJ0j-11" value="Thanh toán?" style="rhombus;whiteSpace=wrap;html=1;" parent="1" vertex="1">
          <mxGeometry x="640.75" y="560" width="80" height="70" as="geometry" />
        </mxCell>
        <mxCell id="C2yTfaaZEqmCllLoVJ0j-14" style="edgeStyle=orthogonalEdgeStyle;rounded=0;orthogonalLoop=1;jettySize=auto;html=1;" parent="1" source="C2yTfaaZEqmCllLoVJ0j-13" edge="1">
          <mxGeometry relative="1" as="geometry">
            <mxPoint x="434" y="595" as="targetPoint" />
          </mxGeometry>
        </mxCell>
        <mxCell id="C2yTfaaZEqmCllLoVJ0j-19" style="edgeStyle=orthogonalEdgeStyle;rounded=0;orthogonalLoop=1;jettySize=auto;html=1;entryX=0;entryY=0.5;entryDx=0;entryDy=0;" parent="1" source="C2yTfaaZEqmCllLoVJ0j-13" target="C2yTfaaZEqmCllLoVJ0j-8" edge="1">
          <mxGeometry relative="1" as="geometry">
            <Array as="points">
              <mxPoint x="534.5" y="260" />
            </Array>
          </mxGeometry>
        </mxCell>
        <mxCell id="C2yTfaaZEqmCllLoVJ0j-13" value="Cập nhật số lượng ?&amp;nbsp;" style="rhombus;whiteSpace=wrap;html=1;" parent="1" vertex="1">
          <mxGeometry x="494" y="562.5" width="80" height="65" as="geometry" />
        </mxCell>
        <mxCell id="C2yTfaaZEqmCllLoVJ0j-16" style="edgeStyle=orthogonalEdgeStyle;rounded=0;orthogonalLoop=1;jettySize=auto;html=1;entryX=0;entryY=0.5;entryDx=0;entryDy=0;exitX=0.5;exitY=0;exitDx=0;exitDy=0;" parent="1" source="C2yTfaaZEqmCllLoVJ0j-45" target="C2yTfaaZEqmCllLoVJ0j-8" edge="1">
          <mxGeometry relative="1" as="geometry">
            <mxPoint x="399.5" y="450" as="sourcePoint" />
            <Array as="points">
              <mxPoint x="400" y="260" />
            </Array>
          </mxGeometry>
        </mxCell>
        <mxCell id="C2yTfaaZEqmCllLoVJ0j-18" style="edgeStyle=orthogonalEdgeStyle;rounded=0;orthogonalLoop=1;jettySize=auto;html=1;entryX=0.5;entryY=0;entryDx=0;entryDy=0;" parent="1" source="C2yTfaaZEqmCllLoVJ0j-17" target="C2yTfaaZEqmCllLoVJ0j-11" edge="1">
          <mxGeometry relative="1" as="geometry" />
        </mxCell>
        <mxCell id="C2yTfaaZEqmCllLoVJ0j-17" value="Actor xem thông tin thanh toán, sản phẩm" style="rounded=1;whiteSpace=wrap;html=1;" parent="1" vertex="1">
          <mxGeometry x="607.5" y="440" width="147" height="50" as="geometry" />
        </mxCell>
        <mxCell id="C2yTfaaZEqmCllLoVJ0j-22" style="edgeStyle=orthogonalEdgeStyle;rounded=0;orthogonalLoop=1;jettySize=auto;html=1;" parent="1" source="C2yTfaaZEqmCllLoVJ0j-21" edge="1">
          <mxGeometry relative="1" as="geometry">
            <mxPoint x="679.5" y="770" as="targetPoint" />
          </mxGeometry>
        </mxCell>
        <mxCell id="C2yTfaaZEqmCllLoVJ0j-21" value="Hệ thống kiểm tra thông tin sản phẩm" style="rounded=1;whiteSpace=wrap;html=1;" parent="1" vertex="1">
          <mxGeometry x="606" y="670" width="147" height="50" as="geometry" />
        </mxCell>
        <mxCell id="C2yTfaaZEqmCllLoVJ0j-24" style="edgeStyle=orthogonalEdgeStyle;rounded=0;orthogonalLoop=1;jettySize=auto;html=1;" parent="1" source="C2yTfaaZEqmCllLoVJ0j-23" edge="1">
          <mxGeometry relative="1" as="geometry">
            <mxPoint x="679.75" y="890" as="targetPoint" />
          </mxGeometry>
        </mxCell>
        <mxCell id="C2yTfaaZEqmCllLoVJ0j-27" style="edgeStyle=orthogonalEdgeStyle;rounded=0;orthogonalLoop=1;jettySize=auto;html=1;entryX=1;entryY=0.5;entryDx=0;entryDy=0;" parent="1" source="C2yTfaaZEqmCllLoVJ0j-23" target="C2yTfaaZEqmCllLoVJ0j-26" edge="1">
          <mxGeometry relative="1" as="geometry" />
        </mxCell>
        <mxCell id="C2yTfaaZEqmCllLoVJ0j-23" value="Có lỗi?" style="rhombus;whiteSpace=wrap;html=1;" parent="1" vertex="1">
          <mxGeometry x="639.75" y="770" width="80" height="70" as="geometry" />
        </mxCell>
        <mxCell id="C2yTfaaZEqmCllLoVJ0j-29" style="edgeStyle=orthogonalEdgeStyle;rounded=0;orthogonalLoop=1;jettySize=auto;html=1;" parent="1" source="C2yTfaaZEqmCllLoVJ0j-25" target="C2yTfaaZEqmCllLoVJ0j-28" edge="1">
          <mxGeometry relative="1" as="geometry" />
        </mxCell>
        <mxCell id="C2yTfaaZEqmCllLoVJ0j-25" value="Hệ thống gửi email giỏ hàng đã được xử lý" style="rounded=1;whiteSpace=wrap;html=1;" parent="1" vertex="1">
          <mxGeometry x="606" y="890" width="147" height="50" as="geometry" />
        </mxCell>
        <mxCell id="C2yTfaaZEqmCllLoVJ0j-30" style="edgeStyle=orthogonalEdgeStyle;rounded=0;orthogonalLoop=1;jettySize=auto;html=1;entryX=0;entryY=0.5;entryDx=0;entryDy=0;" parent="1" source="C2yTfaaZEqmCllLoVJ0j-26" target="C2yTfaaZEqmCllLoVJ0j-28" edge="1">
          <mxGeometry relative="1" as="geometry">
            <Array as="points">
              <mxPoint x="454" y="1035" />
            </Array>
          </mxGeometry>
        </mxCell>
        <mxCell id="C2yTfaaZEqmCllLoVJ0j-26" value="Hệ thống gửi email thông báo lỗi trong quá trình thanh toán" style="rounded=1;whiteSpace=wrap;html=1;" parent="1" vertex="1">
          <mxGeometry x="374" y="775" width="160" height="60" as="geometry" />
        </mxCell>
        <mxCell id="C2yTfaaZEqmCllLoVJ0j-28" value="" style="ellipse;html=1;shape=endState;fillColor=#000000;strokeColor=#ff0000;" parent="1" vertex="1">
          <mxGeometry x="664" y="1020" width="30" height="30" as="geometry" />
        </mxCell>
        <mxCell id="C2yTfaaZEqmCllLoVJ0j-31" value="Không" style="text;html=1;align=center;verticalAlign=middle;resizable=0;points=[];autosize=1;strokeColor=none;fillColor=none;" parent="1" vertex="1">
          <mxGeometry x="584" y="558" width="60" height="30" as="geometry" />
        </mxCell>
        <mxCell id="C2yTfaaZEqmCllLoVJ0j-32" value="Không" style="text;html=1;align=center;verticalAlign=middle;resizable=0;points=[];autosize=1;strokeColor=none;fillColor=none;" parent="1" vertex="1">
          <mxGeometry x="434" y="558" width="60" height="30" as="geometry" />
        </mxCell>
        <mxCell id="C2yTfaaZEqmCllLoVJ0j-34" value="Có" style="text;html=1;align=center;verticalAlign=middle;resizable=0;points=[];autosize=1;strokeColor=none;fillColor=none;" parent="1" vertex="1">
          <mxGeometry x="534" y="448" width="40" height="30" as="geometry" />
        </mxCell>
        <mxCell id="C2yTfaaZEqmCllLoVJ0j-35" value="Có" style="text;html=1;align=center;verticalAlign=middle;resizable=0;points=[];autosize=1;strokeColor=none;fillColor=none;" parent="1" vertex="1">
          <mxGeometry x="684" y="628" width="40" height="30" as="geometry" />
        </mxCell>
        <mxCell id="C2yTfaaZEqmCllLoVJ0j-36" value="Không" style="text;html=1;align=center;verticalAlign=middle;resizable=0;points=[];autosize=1;strokeColor=none;fillColor=none;" parent="1" vertex="1">
          <mxGeometry x="679" y="848" width="60" height="30" as="geometry" />
        </mxCell>
        <mxCell id="C2yTfaaZEqmCllLoVJ0j-37" value="Có" style="text;html=1;align=center;verticalAlign=middle;resizable=0;points=[];autosize=1;strokeColor=none;fillColor=none;" parent="1" vertex="1">
          <mxGeometry x="567.5" y="770" width="40" height="30" as="geometry" />
        </mxCell>
        <mxCell id="C2yTfaaZEqmCllLoVJ0j-43" style="edgeStyle=orthogonalEdgeStyle;rounded=0;orthogonalLoop=1;jettySize=auto;html=1;entryX=0.5;entryY=0;entryDx=0;entryDy=0;" parent="1" source="C2yTfaaZEqmCllLoVJ0j-40" target="C2yTfaaZEqmCllLoVJ0j-42" edge="1">
          <mxGeometry relative="1" as="geometry" />
        </mxCell>
        <mxCell id="C2yTfaaZEqmCllLoVJ0j-40" value="Actor đăng nhập vào hệ thống" style="rounded=1;whiteSpace=wrap;html=1;" parent="1" vertex="1">
          <mxGeometry x="607" y="-70" width="145" height="40" as="geometry" />
        </mxCell>
        <mxCell id="C2yTfaaZEqmCllLoVJ0j-54" style="edgeStyle=orthogonalEdgeStyle;rounded=0;orthogonalLoop=1;jettySize=auto;html=1;entryX=0;entryY=0.5;entryDx=0;entryDy=0;exitX=1;exitY=0.5;exitDx=0;exitDy=0;" parent="1" source="C2yTfaaZEqmCllLoVJ0j-58" target="C2yTfaaZEqmCllLoVJ0j-3" edge="1">
          <mxGeometry relative="1" as="geometry" />
        </mxCell>
        <mxCell id="C2yTfaaZEqmCllLoVJ0j-59" style="edgeStyle=orthogonalEdgeStyle;rounded=0;orthogonalLoop=1;jettySize=auto;html=1;entryX=0.5;entryY=0;entryDx=0;entryDy=0;" parent="1" source="C2yTfaaZEqmCllLoVJ0j-42" target="C2yTfaaZEqmCllLoVJ0j-58" edge="1">
          <mxGeometry relative="1" as="geometry" />
        </mxCell>
        <mxCell id="C2yTfaaZEqmCllLoVJ0j-42" value="Hệ thống hiển thị danh mục sản phẩm" style="rounded=1;whiteSpace=wrap;html=1;" parent="1" vertex="1">
          <mxGeometry x="607" width="145" height="40" as="geometry" />
        </mxCell>
        <mxCell id="C2yTfaaZEqmCllLoVJ0j-51" style="edgeStyle=orthogonalEdgeStyle;rounded=0;orthogonalLoop=1;jettySize=auto;html=1;entryX=0;entryY=0.5;entryDx=0;entryDy=0;" parent="1" source="C2yTfaaZEqmCllLoVJ0j-45" target="C2yTfaaZEqmCllLoVJ0j-58" edge="1">
          <mxGeometry relative="1" as="geometry">
            <Array as="points">
              <mxPoint x="300" y="593" />
              <mxPoint x="300" y="90" />
            </Array>
          </mxGeometry>
        </mxCell>
        <mxCell id="C2yTfaaZEqmCllLoVJ0j-45" value="Xóa sản phẩm?" style="rhombus;whiteSpace=wrap;html=1;" parent="1" vertex="1">
          <mxGeometry x="359.5" y="560" width="80" height="65" as="geometry" />
        </mxCell>
        <mxCell id="C2yTfaaZEqmCllLoVJ0j-47" style="edgeStyle=orthogonalEdgeStyle;rounded=0;orthogonalLoop=1;jettySize=auto;html=1;entryX=0.5;entryY=0;entryDx=0;entryDy=0;" parent="1" source="C2yTfaaZEqmCllLoVJ0j-46" target="C2yTfaaZEqmCllLoVJ0j-17" edge="1">
          <mxGeometry relative="1" as="geometry" />
        </mxCell>
        <mxCell id="C2yTfaaZEqmCllLoVJ0j-48" style="edgeStyle=orthogonalEdgeStyle;rounded=0;orthogonalLoop=1;jettySize=auto;html=1;entryX=1;entryY=1;entryDx=0;entryDy=0;" parent="1" source="C2yTfaaZEqmCllLoVJ0j-46" target="C2yTfaaZEqmCllLoVJ0j-58" edge="1">
          <mxGeometry relative="1" as="geometry">
            <Array as="points">
              <mxPoint x="810" y="365" />
              <mxPoint x="810" y="110" />
            </Array>
          </mxGeometry>
        </mxCell>
        <mxCell id="C2yTfaaZEqmCllLoVJ0j-46" value="Xem giỏ hàng ?&amp;nbsp;" style="rhombus;whiteSpace=wrap;html=1;" parent="1" vertex="1">
          <mxGeometry x="641.25" y="330" width="80" height="70" as="geometry" />
        </mxCell>
        <mxCell id="C2yTfaaZEqmCllLoVJ0j-49" value="Có" style="text;html=1;align=center;verticalAlign=middle;resizable=0;points=[];autosize=1;strokeColor=none;fillColor=none;" parent="1" vertex="1">
          <mxGeometry x="679" y="400" width="40" height="30" as="geometry" />
        </mxCell>
        <mxCell id="C2yTfaaZEqmCllLoVJ0j-50" value="Không" style="text;html=1;align=center;verticalAlign=middle;resizable=0;points=[];autosize=1;strokeColor=none;fillColor=none;" parent="1" vertex="1">
          <mxGeometry x="800" y="258" width="60" height="30" as="geometry" />
        </mxCell>
        <mxCell id="C2yTfaaZEqmCllLoVJ0j-52" value="Có" style="text;html=1;align=center;verticalAlign=middle;resizable=0;points=[];autosize=1;strokeColor=none;fillColor=none;" parent="1" vertex="1">
          <mxGeometry x="400" y="438" width="40" height="30" as="geometry" />
        </mxCell>
        <mxCell id="C2yTfaaZEqmCllLoVJ0j-53" value="Quay lại mua hàng" style="text;html=1;align=center;verticalAlign=middle;resizable=0;points=[];autosize=1;strokeColor=none;fillColor=none;" parent="1" vertex="1">
          <mxGeometry x="180" y="440" width="120" height="30" as="geometry" />
        </mxCell>
        <mxCell id="C2yTfaaZEqmCllLoVJ0j-62" style="edgeStyle=orthogonalEdgeStyle;rounded=0;orthogonalLoop=1;jettySize=auto;html=1;entryX=0.5;entryY=0;entryDx=0;entryDy=0;" parent="1" source="C2yTfaaZEqmCllLoVJ0j-55" target="C2yTfaaZEqmCllLoVJ0j-61" edge="1">
          <mxGeometry relative="1" as="geometry" />
        </mxCell>
        <mxCell id="C2yTfaaZEqmCllLoVJ0j-55" value="Hệ thống cập nhật giỏ hàng và các thông tin thanh toán" style="rounded=1;whiteSpace=wrap;html=1;" parent="1" vertex="1">
          <mxGeometry x="891" y="270" width="146.5" height="60" as="geometry" />
        </mxCell>
        <mxCell id="C2yTfaaZEqmCllLoVJ0j-57" style="edgeStyle=orthogonalEdgeStyle;rounded=0;orthogonalLoop=1;jettySize=auto;html=1;entryX=0.5;entryY=0;entryDx=0;entryDy=0;" parent="1" source="C2yTfaaZEqmCllLoVJ0j-56" target="C2yTfaaZEqmCllLoVJ0j-55" edge="1">
          <mxGeometry relative="1" as="geometry" />
        </mxCell>
        <mxCell id="C2yTfaaZEqmCllLoVJ0j-56" value="Actor chọn số lượng và bấm mua hàng" style="rounded=1;whiteSpace=wrap;html=1;" parent="1" vertex="1">
          <mxGeometry x="890.5" y="170" width="147" height="50" as="geometry" />
        </mxCell>
        <mxCell id="C2yTfaaZEqmCllLoVJ0j-60" style="edgeStyle=orthogonalEdgeStyle;rounded=0;orthogonalLoop=1;jettySize=auto;html=1;entryX=0.5;entryY=0;entryDx=0;entryDy=0;" parent="1" source="C2yTfaaZEqmCllLoVJ0j-58" target="C2yTfaaZEqmCllLoVJ0j-6" edge="1">
          <mxGeometry relative="1" as="geometry" />
        </mxCell>
        <mxCell id="C2yTfaaZEqmCllLoVJ0j-58" value="Actor xem danh mục sản phẩm" style="rounded=1;whiteSpace=wrap;html=1;" parent="1" vertex="1">
          <mxGeometry x="607" y="70" width="145" height="40" as="geometry" />
        </mxCell>
        <mxCell id="C2yTfaaZEqmCllLoVJ0j-67" style="edgeStyle=orthogonalEdgeStyle;rounded=0;orthogonalLoop=1;jettySize=auto;html=1;entryX=0.5;entryY=0;entryDx=0;entryDy=0;" parent="1" source="C2yTfaaZEqmCllLoVJ0j-61" target="C2yTfaaZEqmCllLoVJ0j-64" edge="1">
          <mxGeometry relative="1" as="geometry" />
        </mxCell>
        <mxCell id="C2yTfaaZEqmCllLoVJ0j-61" value="Actor xem thông tin thanh toán, sản phẩm" style="rounded=1;whiteSpace=wrap;html=1;" parent="1" vertex="1">
          <mxGeometry x="891" y="380" width="147" height="50" as="geometry" />
        </mxCell>
        <mxCell id="C2yTfaaZEqmCllLoVJ0j-63" style="edgeStyle=orthogonalEdgeStyle;rounded=0;orthogonalLoop=1;jettySize=auto;html=1;entryX=0;entryY=0.5;entryDx=0;entryDy=0;" parent="1" source="C2yTfaaZEqmCllLoVJ0j-64" target="C2yTfaaZEqmCllLoVJ0j-65" edge="1">
          <mxGeometry relative="1" as="geometry">
            <mxPoint x="1140" y="515" as="targetPoint" />
          </mxGeometry>
        </mxCell>
        <mxCell id="C2yTfaaZEqmCllLoVJ0j-68" style="edgeStyle=orthogonalEdgeStyle;rounded=0;orthogonalLoop=1;jettySize=auto;html=1;entryX=1;entryY=0.5;entryDx=0;entryDy=0;" parent="1" source="C2yTfaaZEqmCllLoVJ0j-64" target="C2yTfaaZEqmCllLoVJ0j-21" edge="1">
          <mxGeometry relative="1" as="geometry">
            <Array as="points">
              <mxPoint x="966" y="695" />
            </Array>
          </mxGeometry>
        </mxCell>
        <mxCell id="C2yTfaaZEqmCllLoVJ0j-64" value="Thanh toán?" style="rhombus;whiteSpace=wrap;html=1;" parent="1" vertex="1">
          <mxGeometry x="930" y="480" width="72.5" height="70" as="geometry" />
        </mxCell>
        <mxCell id="C2yTfaaZEqmCllLoVJ0j-69" style="edgeStyle=orthogonalEdgeStyle;rounded=0;orthogonalLoop=1;jettySize=auto;html=1;entryX=1;entryY=0.5;entryDx=0;entryDy=0;" parent="1" source="C2yTfaaZEqmCllLoVJ0j-65" target="C2yTfaaZEqmCllLoVJ0j-55" edge="1">
          <mxGeometry relative="1" as="geometry">
            <Array as="points">
              <mxPoint x="1140" y="300" />
            </Array>
          </mxGeometry>
        </mxCell>
        <mxCell id="C2yTfaaZEqmCllLoVJ0j-71" style="edgeStyle=orthogonalEdgeStyle;rounded=0;orthogonalLoop=1;jettySize=auto;html=1;entryX=0;entryY=0.5;entryDx=0;entryDy=0;" parent="1" source="C2yTfaaZEqmCllLoVJ0j-65" target="C2yTfaaZEqmCllLoVJ0j-70" edge="1">
          <mxGeometry relative="1" as="geometry" />
        </mxCell>
        <mxCell id="C2yTfaaZEqmCllLoVJ0j-65" value="Cập nhật số lượng ?&amp;nbsp;" style="rhombus;whiteSpace=wrap;html=1;" parent="1" vertex="1">
          <mxGeometry x="1100" y="482.5" width="80" height="65" as="geometry" />
        </mxCell>
        <mxCell id="C2yTfaaZEqmCllLoVJ0j-72" style="edgeStyle=orthogonalEdgeStyle;rounded=0;orthogonalLoop=1;jettySize=auto;html=1;entryX=1;entryY=0.5;entryDx=0;entryDy=0;" parent="1" source="C2yTfaaZEqmCllLoVJ0j-70" target="C2yTfaaZEqmCllLoVJ0j-55" edge="1">
          <mxGeometry relative="1" as="geometry">
            <Array as="points">
              <mxPoint x="1300" y="300" />
            </Array>
          </mxGeometry>
        </mxCell>
        <mxCell id="C2yTfaaZEqmCllLoVJ0j-73" style="edgeStyle=orthogonalEdgeStyle;rounded=0;orthogonalLoop=1;jettySize=auto;html=1;" parent="1" source="C2yTfaaZEqmCllLoVJ0j-70" edge="1">
          <mxGeometry relative="1" as="geometry">
            <mxPoint x="1410" y="515" as="targetPoint" />
          </mxGeometry>
        </mxCell>
        <mxCell id="C2yTfaaZEqmCllLoVJ0j-70" value="Xóa sản phẩm?" style="rhombus;whiteSpace=wrap;html=1;" parent="1" vertex="1">
          <mxGeometry x="1260" y="482.5" width="80" height="65" as="geometry" />
        </mxCell>
        <mxCell id="C2yTfaaZEqmCllLoVJ0j-75" style="edgeStyle=orthogonalEdgeStyle;rounded=0;orthogonalLoop=1;jettySize=auto;html=1;" parent="1" source="C2yTfaaZEqmCllLoVJ0j-74" edge="1">
          <mxGeometry relative="1" as="geometry">
            <mxPoint x="752" as="targetPoint" />
            <Array as="points">
              <mxPoint x="1480" y="-20" />
              <mxPoint x="752" y="-20" />
            </Array>
          </mxGeometry>
        </mxCell>
        <mxCell id="C2yTfaaZEqmCllLoVJ0j-74" value="Quay về danh mục sản phẩm" style="rounded=1;whiteSpace=wrap;html=1;" parent="1" vertex="1">
          <mxGeometry x="1410" y="495" width="145" height="40" as="geometry" />
        </mxCell>
        <mxCell id="C2yTfaaZEqmCllLoVJ0j-76" value="Có" style="text;html=1;align=center;verticalAlign=middle;resizable=0;points=[];autosize=1;strokeColor=none;fillColor=none;" parent="1" vertex="1">
          <mxGeometry x="960" y="558" width="40" height="30" as="geometry" />
        </mxCell>
        <mxCell id="C2yTfaaZEqmCllLoVJ0j-77" value="Không" style="text;html=1;align=center;verticalAlign=middle;resizable=0;points=[];autosize=1;strokeColor=none;fillColor=none;" parent="1" vertex="1">
          <mxGeometry x="1010" y="478" width="60" height="30" as="geometry" />
        </mxCell>
        <mxCell id="C2yTfaaZEqmCllLoVJ0j-78" value="Có" style="text;html=1;align=center;verticalAlign=middle;resizable=0;points=[];autosize=1;strokeColor=none;fillColor=none;" parent="1" vertex="1">
          <mxGeometry x="1140" y="398" width="40" height="30" as="geometry" />
        </mxCell>
        <mxCell id="C2yTfaaZEqmCllLoVJ0j-79" value="Có" style="text;html=1;align=center;verticalAlign=middle;resizable=0;points=[];autosize=1;strokeColor=none;fillColor=none;" parent="1" vertex="1">
          <mxGeometry x="1300" y="398" width="40" height="30" as="geometry" />
        </mxCell>
        <mxCell id="C2yTfaaZEqmCllLoVJ0j-80" value="Không" style="text;html=1;align=center;verticalAlign=middle;resizable=0;points=[];autosize=1;strokeColor=none;fillColor=none;" parent="1" vertex="1">
          <mxGeometry x="1190" y="518" width="60" height="30" as="geometry" />
        </mxCell>
        <mxCell id="C2yTfaaZEqmCllLoVJ0j-81" value="Không" style="text;html=1;align=center;verticalAlign=middle;resizable=0;points=[];autosize=1;strokeColor=none;fillColor=none;" parent="1" vertex="1">
          <mxGeometry x="1340" y="518" width="60" height="30" as="geometry" />
        </mxCell>
      </root>
    </mxGraphModel>
  </diagram>
</mxfile>
